<svg version="1.2" xmlns="http://www.w3.org/2000/svg" viewBox="0 0 1000 754" width="1000" height="754"><style>tspan{white-space:pre}.a{fill:#263238}.b{fill:none;stroke:#263238;stroke-width:2}.c{fill:none;stroke:#263238;stroke-linecap:round;stroke-linejoin:round;stroke-width:2}.d{fill:#fff;stroke:#263238;stroke-linecap:round;stroke-linejoin:round;stroke-width:2}.e{fill:#263238;stroke:#263238;stroke-linecap:round;stroke-linejoin:round;stroke-width:2}.f{fill:#0169ee}.g{fill:#fff}.h{fill:#f0ae00}.i{fill:none;stroke:#263238;stroke-linecap:round;stroke-linejoin:round;stroke-width:4}</style><path class="a" d="m546.5 597.8c-1-4.3 1.5-8.8 6.1-9.4 6.2-0.9 14 7.5 16.4 12.6 0.2 0.5 2.7 7.8 2.6 7.8 0 0-11.1 0.2-15.7-1.8-3.8-1.7-8.3-4.9-9.4-9.2z"/><path class="a" d="m548.3 632.8c-2.1-3.8-0.9-8.9 3.3-10.7 5.8-2.4 15.5 3.7 19.2 7.9 0.3 0.3 3.2 4.6 4.2 6.2q0-0.1-0.1-0.2c-1.6-5.9-2.4-11.6-2.8-17.2-0.5-5.5-0.5-10.7-0.4-15.5 0.1-4.8 0.5-9.2 0.9-13.1q0.3-3.1 0.7-5.8c0 0-0.1 0.1-0.1 0.1-0.1 0-2.2-7.4-2.3-7.8-0.9-5.6 0.5-17 6.2-19.9 4-2.1 8.7 0.2 10.3 4.3 1.6 4.1-0.2 9.3-2.4 13-2.2 3.7-9.6 8.8-11.4 10.1-0.2 1.8-0.4 3.8-0.6 6-0.3 3.9-0.6 8.3-0.6 13.1 0 1.3 0 2.7 0 4 0.5-2.3 1.1-5.3 1.2-5.6 1.7-5.4 8.3-14.8 14.6-14.8 4.6 0 7.7 4.2 7.2 8.5-0.4 4.5-4.4 8.3-8 10.5-3.8 2.3-12.9 3.5-14.9 3.7 0.1 3 0.2 6 0.6 9.1 0.6 5.5 1.5 11.2 3.2 16.9 0.1 0.3 0.2 0.6 0.3 1 0-1.2 0.6-7.5 0.7-7.9 1.1-5.6 6.6-15.6 12.9-16.3 4.5-0.5 8.1 3.3 8.1 7.7 0 4.5-3.5 8.7-6.9 11.2-3.8 3-14.3 5.4-14.7 5.5 1.6 5.3 3.7 10.7 6.2 16 1.7 3.8 3.7 7.6 5.7 11.5 0-1.5 0.6-7.4 0.6-7.8 1.2-5.6 6.7-15.6 13-16.3 4.5-0.5 8 3.3 8.1 7.7 0 4.5-3.6 8.7-6.9 11.3-3.8 2.9-13.8 5.2-14.7 5.4q1.4 2.6 2.7 5.2c3 5.6 6.1 11.3 8.9 16.9 1 2 1.8 4 2.7 6 0.2-2.3 0.6-6.4 0.7-6.7 1.1-5.5 6.6-15.6 12.9-16.3 4.5-0.5 8 3.3 8.1 7.7 0 4.5-3.6 8.7-6.9 11.3-3.4 2.6-11.8 4.7-14.1 5.3 1.4 3.3 2.8 6.6 4 9.9 0.5 1.4 1.1 2.8 1.5 4.2q0.7 2.2 1.3 4.2c0.7 2.9 1.5 5.6 2.1 8.3 0.3 1.4 0.6 2.7 0.9 4-0.1-2.3-0.4-5.9-0.3-6.2 0.2-5.7 4.1-16.4 10.3-18.1 4.4-1.2 8.4 2.1 9.1 6.4q0.2 0.8 0.1 1.6c2.7 4.3 4 10.5 3.9 14.2 0 0.4-0.6 4.6-0.9 6.8 0.7-1.7 1.4-3.3 2-5.1 1-2.5 2-5.2 2.9-7.9q0.7-2 1.4-4.1c0.5-1.4 0.8-2.8 1.2-4.2 0.5-2.1 1-4.3 1.4-6.5-2.6-0.9-10.3-3.5-13.3-6.2-3.2-2.9-6.4-7.3-6.1-11.8 0.4-4.3 4.2-7.9 8.7-7 6.2 1.1 10.9 11.5 11.7 17.1 0 0.2 0 1.4 0 2.9 0.4-2.2 0.8-4.3 1.1-6.5 0.9-6.2 1.7-12.6 2.4-18.9q0.3-2 0.5-4c-2.2-0.7-10.6-3.5-13.8-6.4-3.1-2.8-6.3-7.2-6-11.7 0.4-4.4 4.2-7.9 8.7-7.1 6.2 1.2 10.9 11.6 11.6 17.2 0.1 0.2 0.1 1.7 0.1 3.3 0.5-3.5 1-6.9 1.6-10.3 1-5.9 2.4-11.7 4.2-17.2-0.8-0.3-10.7-3.3-14.2-6.5-3.2-2.8-6.4-7.3-6.1-11.8 0.4-4.3 4.2-7.8 8.7-7 6.2 1.1 10.9 11.6 11.6 17.2 0.1 0.4 0.2 5.6 0.1 7.4q0.1-0.1 0.1-0.2c1.9-5.7 4.4-11 7.1-15.9 2.6-4.8 5.5-9.2 8.2-13.1 2.8-4 5.5-7.4 8-10.5q2-2.4 3.8-4.4c0 0-0.1 0-0.1 0-0.1 0 2.2-7.4 2.4-7.8 2.3-5.2 9.8-13.8 16.1-13.1 4.5 0.5 7.1 4.9 6.2 9.2-0.9 4.4-5.3 7.7-9.1 9.5-3.9 1.9-12.9 2.1-15.1 2.2-1.2 1.4-2.5 3-3.9 4.7-2.4 3.1-5 6.6-7.7 10.6-0.7 1-1.4 2.2-2.1 3.3 1.6-1.6 3.8-3.9 4-4 4.5-3.6 15.1-7.8 20.4-4.3 3.8 2.5 4.1 7.7 1.3 11.1-2.9 3.5-8.3 4.4-12.5 4.3-4.4-0.2-12.7-4.2-14.5-5.1-1.5 2.5-3.1 5.1-4.5 7.9-2.5 4.9-4.9 10.2-6.7 15.8-0.1 0.4-0.1 0.7-0.2 1 0.6-0.9 4.6-5.9 4.9-6.2 4-4 14.1-9.3 19.8-6.4 4 2.1 4.9 7.2 2.5 10.9-2.5 3.7-7.8 5.2-12 5.5-4.8 0.4-14.9-3.4-15.3-3.5-1.5 5.3-2.7 10.9-3.6 16.7-0.7 4.2-1.2 8.4-1.6 12.7 0.9-1.2 4.5-5.8 4.8-6.1 4-4 14.1-9.3 19.8-6.4 4 2.1 4.9 7.2 2.5 10.8-2.4 3.8-7.7 5.3-11.9 5.6-4.8 0.4-14.4-3.2-15.3-3.5q-0.3 2.9-0.6 5.8c-0.6 6.4-1.2 12.8-2 19-0.2 2.2-0.6 4.4-0.9 6.5 1.4-1.8 3.9-5 4.2-5.2 4-4 14.1-9.4 19.7-6.5 4.1 2.1 4.9 7.2 2.5 10.9-2.4 3.8-7.7 5.3-11.9 5.6-4.2 0.3-12.4-2.5-14.7-3.4-0.6 3.6-1.3 7.1-2.1 10.5-0.4 1.5-0.7 3-1.1 4.4q-0.6 2.1-1.3 4.2c-0.9 2.8-1.8 5.5-2.8 8.1-0.4 1.3-0.9 2.6-1.4 3.8 1.1-2 3-5.1 3.2-5.4 3.3-4.5 12.5-11.4 18.5-9.4 4.3 1.5 5.9 6.4 4.1 10.4-1.8 4.1-6.8 6.4-10.9 7.4-4.6 1-14.3-1-15.5-1.3-1.2 3.2-2.4 6.2-3.6 9-1.9 4.7-3.7 8.9-5.3 12.5h-4.5c1.9-3.9 4.1-8.6 6.4-13.9 1.1-2.6 2.2-5.2 3.3-8-1-0.6-9.3-4.7-12.6-8.2-3.7 2.1-7.9 3.8-8.7 4.1 0.8 3.3 1.5 6.4 2.1 9.4 1.2 6.3 2.2 11.9 2.9 16.6h-4.2c-0.6-4.5-1.4-9.9-2.4-15.9-0.5-2.7-1.1-5.6-1.6-8.5-1.3 0.2-11.1 1.4-15.6 0-4-1.2-8.8-3.9-10.4-8.1-1.5-4.1 0.5-8.9 4.9-10 6.2-1.6 14.8 5.9 17.8 10.7 0.2 0.3 2.1 4.2 3 6.2-0.4-1.8-0.7-3.6-1.1-5.4-0.6-2.7-1.3-5.5-1.9-8.2q-0.6-2-1.2-4.2c-0.4-1.4-0.9-2.7-1.3-4.2-0.7-2-1.6-4.1-2.4-6.2-2.7 0.8-10.5 2.8-14.6 2.2-4.2-0.6-9.3-2.5-11.5-6.4-2.1-3.9-0.9-8.9 3.3-10.7 5.9-2.5 15.5 3.6 19.2 7.9 0.2 0.1 0.9 1.1 1.7 2.3-0.9-2-1.8-4-2.7-6-2.7-5.7-5.6-11.4-8.4-17.1q-0.9-1.8-1.8-3.6c-2.3 0.6-10.8 2.9-15 2.3-4.2-0.6-9.4-2.5-11.5-6.5-2.1-3.8-0.9-8.8 3.3-10.6 5.8-2.5 15.5 3.6 19.2 7.9 0.2 0.1 1 1.3 1.9 2.6-1.5-3.1-3-6.2-4.4-9.4-2.4-5.5-4.4-11.1-6-16.7-0.8 0.3-10.7 3.1-15.4 2.5-4.2-0.6-9.4-2.6-11.5-6.5z"/><path class="a" d="m656.3 599.4c-2.3-3.6-4.2-8.7-2.7-12.9 1.5-4.1 6.1-6.5 10.2-4.5 5.7 2.7 7.5 14 6.7 19.6 0 0.5-2 7.9-2.1 7.9 0 0-9.4-5.9-12.1-10.1z"/><path class="b" d="m869.6 171.1c-47 0-85-38.1-85-85.1 0-46.9 38-85 85-85 47 0 85.1 38.1 85.1 85 0 47-38.1 85.1-85.1 85.1z"/><path class="b" d="m869.6 164.9c-43.5 0-78.8-35.3-78.8-78.9 0-43.5 35.3-78.8 78.8-78.8 43.6 0 78.9 35.3 78.9 78.8 0 43.6-35.3 78.9-78.9 78.9z"/><path class="a" d="m869.6 90.5c-2.4 0-4.4-2-4.4-4.5 0-2.4 2-4.4 4.4-4.4 2.5 0 4.4 2 4.4 4.4 0 2.5-1.9 4.5-4.4 4.5z"/><path class="c" d="m869.6 37.3v48.7h-39.8"/><path class="d" d="m21.6 727.9c0 0 16-81.1 16-87.5 0-6.4-1.1-29.9-6.4-58.7-5.3-28.8-21.4-100.3-25.6-112-4.3-11.8 11.7-33.1 16-57.7 4.3-24.5 13.9-48 26.7-62.9 12.8-15 58.7-48.1 58.7-48.1h23.5c0 0-8.6 140.9 3.2 162.3 11.7 21.3 33 66.1 35.2 85.3 2.1 19.3-10.7 51.3-8.6 69.4 2.2 18.2-16 48-20.2 60.9-4.3 12.8-2.2 53.3-2.2 53.3"/><path class="e" d="m104.8 340.5v116.4l-11.7-7.5c0 0-2.1-6.4-6.4-12.8-4.3-6.4-11.7-23.5-11.7-23.5 0 0 4.2-8.5 6.4-19.2 2.1-10.7 6.4-33.5 6.4-33.5l17-19.9c9.6-6.4 0 0 0 0z"/><path class="c" d="m45.9 415.8c0 0 8.6-1.2 17.2-1.2"/><path class="c" d="m75.5 351.7c0 0 12.3 3.7 12.3 8.7"/><path class="d" d="m1.4 741.8c0 0 5.3-50.7 5.3-56q0-8 0-16c0-5.4 5.4-9.4 5.4-9.4 0 0 52-10.6 104 6.7 52 17.3 40 45.3 40 45.3l-2.7 40"/><path class="e" d="m739.9 549.7h-621.2c-10.6 0-19.2-8.6-19.2-19.2v-369.3c0-10.6 8.6-19.2 19.2-19.2h621.2c10.6 0 19.2 8.6 19.2 19.2v369.3c0 10.6-8.6 19.2-19.2 19.2z"/><path class="d" d="m716.9 527.3h-575.2c-10.6 0-19.2-8.6-19.2-19.2v-324.5c0-10.6 8.6-19.2 19.2-19.2h575.2c10.6 0 19.2 8.6 19.2 19.2v324.5c0 10.6-8.6 19.2-19.2 19.2z"/><path class="d" d="m690.7 283.9h-163.8v-104.8h163.8z"/><path class="e" d="m690.7 283.9h-163.8v-11.6h163.8z"/><path class="d" d="m690.7 279.8h-163.8v-3.4h163.8z"/><path class="f" d="m606 255.1c-13.3 0-24.1-10.8-24.1-24.1 0-13.3 10.8-24.1 24.1-24.1 13.3 0 24.1 10.8 24.1 24.1 0 13.3-10.8 24.1-24.1 24.1z"/><path class="g" d="m599 243.7v-24.3l21 12.1z"/><path class="d" d="m690.7 400.1h-163.8v-104.8h163.8z"/><path class="e" d="m690.7 400.1h-163.8v-11.7h163.8z"/><path class="d" d="m690.7 395.9h-163.8v-3.4h163.8z"/><path class="f" d="m606 371.3c-13.3 0-24.1-10.8-24.1-24.2 0-13.3 10.8-24.1 24.1-24.1 13.3 0 24.1 10.8 24.1 24.1 0 13.4-10.8 24.2-24.1 24.2z"/><path class="g" d="m599 359.8v-24.2l21 12.1z"/><path class="d" d="m690.7 516.2h-163.8v-104.8h163.8z"/><path class="e" d="m690.7 516.2h-163.8v-11.7h163.8z"/><path class="d" d="m690.7 512.1h-163.8v-3.4h163.8z"/><path class="f" d="m606 487.4c-13.3 0-24.1-10.8-24.1-24.1 0-13.3 10.8-24.1 24.1-24.1 13.3 0 24.1 10.8 24.1 24.1 0 13.3-10.8 24.1-24.1 24.1z"/><path class="g" d="m599 475.9v-24.2l21 12.1z"/><path class="h" d="m471.1 521.1h-278.9c-6.4 0-11.6-5.2-11.6-11.6v-283.9c0-6.4 5.2-11.6 11.6-11.6h278.9c6.4 0 11.6 5.2 11.6 11.6v283.9c0 6.4-5.2 11.6-11.6 11.6z"/><path class="d" d="m70.7 491.1c0 0 19.2-41.7 21.3-57.7 2.2-16-2.1-53.4 3.2-68.3 5.4-15 2.2-34.2 15-41.7 12.8-7.4 29.9-5.3 33.1 24.6 3.2 29.9 0 76.8 1 92.8 1.1 16.1 28.8 39.5 29.9 73.7 1.1 34.1-10.7 69.4-13.9 84.3-3.2 14.9-16 50.2-16 50.2"/><path class="c" d="m103.8 330.8c4.9-11.1 19.7-12.3 27.1-7.4 7.4 4.9 6 17.1 6 17.1 1 10.7 0 21.4 0 21.4 0 0-6.4-2.2-17.1-4.3-10.7-2.1-19.3 0.4-19.3 0.4 0 0-1.6-16.1 3.3-27.2z"/><path class="c" d="m127.2 377.6c0 0-24.6-7.4-30.8 2.5"/><path class="c" d="m102.6 383.8c0 0 7.3 2.4 23.4 1.2"/><path class="e" d="m799.7 240.2c0 19.2-9.7 46.9-18.2 49.1-8.5 2.1-59.8-61.9-61.9-69.4-2.1-7.5 25.6-16 25.6-16 0 0 54.5 17.1 54.5 36.3z"/><path class="d" d="m897.6 445.1l-36.4-33.8c0 0-11.3-0.9-34.7-13.9-23.4-13-57.2-51.1-57.2-51.1l0.5-74.1c0 0 2.1-9.6 2.1-18.1 0-8.6-10.7-25.7-14.9-27.8-4.3-2.1-27.8-5.3-31-5.3-3.2 0-27.7 4.2-43.8 6.4-16 2.1-22.4 6.4-36.2 1-13.9-5.3-19.2-14.9-15-18.1 4.3-3.2 58.7-22.4 76.9-28.8 18.1-6.4 19.2-10.7 34.1-6.4 15 4.3 50.2 11.7 67.3 12.8 17 1.1 29.8 5.3 33 7.5 3.2 2.1 13.9 3.2 21.4 5.3 7.5 2.1 28.8 48 38.4 64 9.6 16 43.8 96.1 43.8 96.1l26.2 31.6"/><path class="d" d="m842.3 195.4c0 0 10.7 10.6 17.1 24.5"/><path class="d" d="m942.7 513.1l-81.1-91.5c0 0-37.4-16-61.9-32-24.6-16-54.5-67.2-62-79-7.4-11.7-23.4-35.2-36.2-43.7-12.8-8.6-36.3-35.2-41.7-45.9-5.3-10.7 4.3-24.6 16-25.6 11.8-1.1 60.9 22.4 69.4 35.2 8.6 12.8 33.1 39.5 33.1 39.5"/><path class="c" d="m718.5 232.7c0 0-12.8 12.8-13.8 19.2"/><path class="c" d="m728.1 233.8c0 0-9.6 14.9-16 20.3"/><path class="c" d="m707.9 212.4c-13.9 9.6-23.5 27.8-23.5 27.8 0 0-22.8-8.3-24.6-19.2-1.7-10.9 1.8-21.9 16-25.6 14.3-3.8 32.1 17 32.1 17z"/><path class="d" d="m970.7 577.1c-4-6.7-93.3-111.3-97.3-124.7-4-13.3 12-44 37.3-72 13.4-14.7 46.7-38.8 65.4-19.2 7.7 8.1 14.2 17.9 22.6 25.9"/><path class="d" d="m257.6 526.8l-9.1-198 60.7-36.7c0 0 37.4-3.7 39.2-3.7 1.8 0 71.1 32.5 76.6 34.3 5.5 1.8 7.4 33.1 13.5 57 6.1 23.9 15.9 90.1 15.9 90.1 0 0-37.4 17.2-39.2 13.5-1.8-3.7-4.3-13.5-4.3-13.5l-3.6 57z"/><path class="c" d="m359.2 373.6q-0.1 3.1-0.4 5.9"/><path class="c" d="m355.5 320.8c0 0 3.5 22.7 3.8 44.1"/><path class="c" d="m404 368.5l0.2-9.7"/><path class="c" d="m402.2 466.2l1.7-90.4"/><path class="d" d="m429.9 526.8l-14.4-29.3 42-8 4.4 37.3z"/><path class="d" d="m408.8 480.2c0 0 9.4-4 21.4-11.4 12-7.3 23.3-9.3 26.6-3.3 3.4 6 10.7 22.7 8 25.3-2.6 2.7-42 15.4-46 15.4-4 0-11.3-13.5-11.3-13.5 0 0-1.3-5.9 1.3-12.5z"/><path class="d" d="m358.8 280.4c9.8 9.8 19 41.7 19 41.7l-26.3-17.8-6.2 3.7-16.5 25.7-26.4-36.7c0 0 1.9-8.6 4.9-13.5 2.3-3.7 9.2-9.2 9.2-9.2 5.5-2.5 32.5-3.7 42.3 6.1z"/><path class="e" d="m349 146.7c0 0 13.9 11.1 15.3 17.4 1.4 6.2-2.5 19.9-2.5 19.9l-18.4-35.9z"/><path class="d" d="m344.7 141.3c0 0 25.1 54.5 28.8 72.9 3.7 18.4 1.9 35.6-4.9 48.4-6.7 12.9-14.1 11.1-14.1 11.1v41.6c0 0-32.5-25.7-34.3-28.8-1.8-3-4.9-8.5-4.9-8.5 0 0-3.7-27-15.3-35 0 0-15.3 2.5-19-11.6-3.7-14.1-0.6-19 9.2-20.2 0 0-8-20.3-9.8-33.7-1.9-13.5 20.8-17.8 34.3-26.4 13.5-8.6 30-9.8 30-9.8z"/><path class="e" d="m353.8 289.7l-11.1-20.6 11.8 4.6z"/><path class="e" d="m288.9 215.4c0 0-7.9-3-16.5-14-8.6-11.1-11-19.7 0.6-38 11.7-18.4 53.3-35.6 65-33.8 11.6 1.9 19 16.6 4.9 25.8-14.1 9.2-31.3 12.9-31.3 12.9 0 0 6.8-5.6-0.6-6.8-7.3-1.2-22.1 6.1-20.8 12.3 1.2 6.1 10.4 4.3 9.8 14.1-0.6 9.8-9.2 20.2-6.2 23.9 3.1 3.6 10.5 6.7 4.3 8.6-6.1 1.8-9.2-5-9.2-5z"/><path class="c" d="m331.8 225.3l-9.1 7.3"/><path class="c" d="m327.6 230.2c0 0 11.6 11 31.8 1.8"/><path class="e" d="m350.2 235.7c0 0 4.9 11-4.9 8.6-9.8-2.5-13.5-10.5-13.5-10.5 5 1.9 18.4 1.9 18.4 1.9z"/><path class="a" d="m321.3 196.9c1 2.9 0.7 5.6-0.6 6-1.3 0.4-3.1-1.6-4.1-4.5-0.9-2.8-0.6-5.5 0.6-6 1.3-0.4 3.2 1.6 4.1 4.5z"/><path class="a" d="m353.2 187.7c0.9 2.9 0.7 5.6-0.6 6-1.3 0.4-3.1-1.6-4.1-4.4-0.9-2.9-0.7-5.6 0.6-6.1 1.3-0.4 3.1 1.6 4.1 4.5z"/><path class="c" d="m337 201.5l-25 8.3c-2.2 0.7-4.5-0.5-5.2-2.6l-3.6-11c-0.7-2.1 0.4-4.5 2.6-5.2l25-8.2c2.1-0.7 4.4 0.4 5.1 2.6l3.7 10.9c0.7 2.2-0.5 4.5-2.6 5.2z"/><path class="c" d="m335.4 183.3l8.9-2.9"/><path class="c" d="m303.2 196.2l-16 15.8"/><path class="c" d="m374.7 171.1l-11.8 10"/><path class="c" d="m377.4 189.2l-25 8.3c-2.1 0.7-4.4-0.5-5.2-2.6l-3.6-11c-0.7-2.1 0.5-4.4 2.6-5.1l25-8.3c2.2-0.7 4.5 0.5 5.2 2.6l3.6 11c0.7 2.1-0.4 4.4-2.6 5.1z"/><path class="i" d="m307.9 186.6c0 0 7.4-9.1 18.4-7.9"/><path class="i" d="m341.7 173.8c0 0 4.9-4.9 14-2.5"/><path class="d" d="m343.5 185.4c0 0 18.4 35.6 16.5 38-1.8 2.5-14.1 0-14.1 0"/><path class="d" d="m282.2 384c0 0-18.4 70.5-22.7 71.7-4.3 1.2-42.9-1.2-45.9-4.3-3.1-3.1 25.7-107.9 28.8-117.1 3-9.1 13.5-9.1 13.5-9.1"/><path class="d" d="m253.4 481.4c-10.4 10.5-17.8 8.6-26.4 6.8-8.5-1.9-19-11.7-16.5-27 2.4-15.3 4.3-13.5 14.7-21.4 10.4-8 27.6-8.6 38-3.7 10.4 4.9 8 17.1 8 17.1 0 0-7.4 17.8-17.8 28.2z"/><path class="d" d="m387.2 394.2c31.3-1.8 36.8-6.1 36.8-6.1 0 0-2.5 14.1-6.8 39.2-4.2 25.1-12.8 76.6-12.8 76.6 0 0-23.3 13.5-48.4 16-25.2 2.4-40.5-2.5-40.5-2.5 15.9-34.9 20.2-128.7 20.2-128.7 0 0 20.3 7.4 51.5 5.5z"/><path class="d" d="m304.9 465.5c0 0 32.5-22.1 38.6-22.1 6.1 0 25.6 6.2 25.7 9.2 0.3 7.4-23.6 1-23.6 1l-10.6 2.2 34.2 6c7.4 4.9-4.3 10.4-4.3 10.4 6.8 1.9 2.3 6.6-1.2 7.4-3.4 0.7-28.2 5.5-26.3 6.1 1.8 0.6 26.9-1.2 23.9 3.7-3.1 4.9-25.8 7.4-34.4 7.4-8.5 0-23.2-3.1-29.4-3.1-6.1 0-57.6-4.9-65.6-7.4-7.9-2.4-8.5-9.8-2.4-23.9 6.1-14.1 20.8-19 25.7-19 4.9 0 40.5 22.1 40.5 22.1z"/><path class="c" d="m364.9 472.2l-31.2-2.4"/><path class="e" d="m507.1 142c-11.3 14.2-30.3 23.5-51.9 23.5q-0.7 0-1.4 0l-44.7 39.1 24.1-42.5c-12.3-3.9-22.7-11-29.9-20.1z"/><path class="h" d="m516.8 109.1c0 29.3-28 53-62.5 53q-0.6 0-1.3 0l-44.7 39.1 24.1-42.5c-23.7-7.5-40.5-26.9-40.5-49.6 0-29.2 27.9-53 62.4-53 34.5 0 62.5 23.8 62.5 53z"/><path class="a" d="m425.3 117.2c-3.8 0-6.9-3.1-6.9-6.9 0-3.9 3.1-7 6.9-7 3.8 0 6.9 3.1 6.9 7 0 3.8-3.1 6.9-6.9 6.9z"/><path class="a" d="m456.2 117.2c-3.8 0-6.9-3.1-6.9-6.9 0-3.9 3.1-7 6.9-7 3.8 0 6.9 3.1 6.9 7 0 3.8-3.1 6.9-6.9 6.9z"/><path class="a" d="m487.1 117.2c-3.8 0-6.9-3.1-6.9-6.9 0-3.9 3.1-7 6.9-7 3.9 0 7 3.1 7 7 0 3.8-3.1 6.9-7 6.9z"/><path class="f" d="m344.7 657.6c-6.6 0-12-5.4-12-12.1 0-6.6 5.4-12 12-12 6.7 0 12.1 5.4 12.1 12 0 6.7-5.4 12.1-12.1 12.1z"/><path class="f" d="m373.1 634.6l-8.2 7.8c-1.5-9.8-10-17.3-20.2-17.3-9.5 0-17.5 6.6-19.7 15.4l-8.1-7.2c4.7-10.7 15.4-18.2 27.8-18.2 12.9 0 23.9 8.1 28.4 19.5z"/><path class="f" d="m303.8 621.5c8.2-14 23.5-23.5 40.9-23.5 17.7 0 33.1 9.7 41.3 24.1l-7.5 7.2c-6.1-12.5-18.9-21.3-33.8-21.3-14.5 0-27 8.3-33.3 20.4z"/><path class="f" d="m668 55.7v49.7c0 5.3-4.2 9.5-9.5 9.5h-60.4c-5.3 0-9.5-4.2-9.5-9.5v-60.4c0-5.3 4.2-9.5 9.5-9.5h54"/><path fill-rule="evenodd" class="g" d="m657.9 59.8v31.1c0 1.2-1 2.2-2.2 2.2h-54c-1.2 0-2.2-1-2.2-2.2v-31.1c0-1.2 1-2.2 2.2-2.2h54c1.2 0 2.2 1 2.2 2.2zm-0.8 1.8c-0.6-1-1.9-1.3-2.8-0.7l-25.1 15.5-26.5-14.8c-1-0.5-2.2-0.2-2.7 0.8-0.6 1-0.2 2.2 0.7 2.7l17.6 9.8-15.5 11.4c-0.9 0.7-1.1 1.9-0.4 2.8 0.4 0.5 1 0.8 1.6 0.8 0.4 0 0.8-0.1 1.2-0.4l16.9-12.5 7.2 4 6.2-3.8 16.7 12.3c0.3 0.3 0.7 0.4 1.1 0.4 0.7 0 1.3-0.3 1.6-0.8 0.7-0.9 0.5-2.1-0.4-2.8l-15.3-11.3 17.2-10.7c0.9-0.6 1.2-1.8 0.7-2.7z"/><path class="h" d="m663.7 56.5c-7.8 0-14.1-6.3-14.1-14 0-7.8 6.3-14.1 14.1-14.1 7.7 0 14 6.3 14 14.1 0 7.7-6.3 14-14 14z"/><path class="f" d="m865.9 580.2v49.8c0 5.2-4.3 9.4-9.5 9.4h-60.4c-5.3 0-9.5-4.2-9.5-9.4v-60.5c0-5.2 4.2-9.5 9.5-9.5h54"/><path class="h" d="m861.5 581c-7.7 0-14-6.3-14-14 0-7.7 6.3-14 14-14 7.8 0 14.1 6.3 14.1 14 0 7.7-6.3 14-14.1 14z"/><path class="g" d="m852.3 595.8c0 12.1-11.5 21.9-25.7 21.9-2 0-4-0.2-5.9-0.6l-10.5 6.5 1.2-10.2c-6.3-4-10.5-10.4-10.5-17.6 0-12.1 11.5-21.9 25.7-21.9 14.2 0 25.7 9.8 25.7 21.9z"/></svg>